<svg xmlns="http://www.w3.org/2000/svg" width="1200" height="1200" viewBox="0 0 1200 1200" role="img" aria-label="Smart Expense Tracker thumbnail">
  <defs>
    <linearGradient id="bg" x1="0" y1="0" x2="1" y2="1">
      <stop offset="0%" stop-color="#6d28d9"/>
      <stop offset="100%" stop-color="#2563eb"/>
    </linearGradient>
    <linearGradient id="card" x1="0" y1="0" x2="1" y2="1">
      <stop offset="0%" stop-color="#ffffff" stop-opacity="0.95"/>
      <stop offset="100%" stop-color="#eef2ff" stop-opacity="0.9"/>
    </linearGradient>
  </defs>
  <rect width="1200" height="1200" fill="url(#bg)"/>
  <circle cx="1020" cy="170" r="160" fill="#fff" opacity="0.1"/>
  <circle cx="170" cy="1030" r="200" fill="#fff" opacity="0.08"/>

  <rect x="130" y="180" width="940" height="830" rx="44" fill="url(#card)"/>
  <text x="185" y="330" font-family="Chakra Petch, Arial, sans-serif" font-size="62" font-weight="700" fill="#1f2937">Smart Expense Tracker</text>

  <rect x="190" y="410" width="820" height="96" rx="18" fill="#dbeafe"/>
  <text x="225" y="472" font-family="Chakra Petch, Arial, sans-serif" font-size="42" font-weight="700" fill="#1d4ed8">Monthly Spend: $2,348</text>

  <rect x="210" y="560" width="180" height="300" rx="14" fill="#c7d2fe"/>
  <rect x="430" y="640" width="180" height="220" rx="14" fill="#a5b4fc"/>
  <rect x="650" y="600" width="180" height="260" rx="14" fill="#818cf8"/>
  <rect x="870" y="500" width="120" height="360" rx="14" fill="#6366f1"/>

  <polyline points="210,720 430,700 650,740 870,620" fill="none" stroke="#4f46e5" stroke-width="14" stroke-linecap="round" stroke-linejoin="round"/>

  <rect x="190" y="905" width="820" height="72" rx="14" fill="#4338ca"/>
  <text x="430" y="952" font-family="Chakra Petch, Arial, sans-serif" font-size="38" font-weight="700" fill="#ffffff">AI Insights Enabled</text>
</svg>
