<svg xmlns="http://www.w3.org/2000/svg" width="1200" height="1200" viewBox="0 0 1200 1200" role="img" aria-label="Stock Data Search thumbnail">
  <defs>
    <linearGradient id="bg" x1="0" y1="0" x2="1" y2="1">
      <stop offset="0%" stop-color="#7c3aed"/>
      <stop offset="100%" stop-color="#2563eb"/>
    </linearGradient>
    <linearGradient id="card" x1="0" y1="0" x2="1" y2="1">
      <stop offset="0%" stop-color="#ffffff" stop-opacity="0.95"/>
      <stop offset="100%" stop-color="#f3f4f6" stop-opacity="0.9"/>
    </linearGradient>
  </defs>
  <rect width="1200" height="1200" fill="url(#bg)"/>
  <circle cx="980" cy="180" r="170" fill="#ffffff" opacity="0.1"/>
  <circle cx="210" cy="1030" r="220" fill="#ffffff" opacity="0.08"/>

  <rect x="130" y="180" width="940" height="820" rx="44" fill="url(#card)"/>
  <rect x="190" y="260" width="820" height="64" rx="16" fill="#dbeafe"/>
  <rect x="220" y="420" width="140" height="430" rx="12" fill="#e0e7ff"/>
  <rect x="390" y="510" width="140" height="340" rx="12" fill="#c7d2fe"/>
  <rect x="560" y="470" width="140" height="380" rx="12" fill="#a5b4fc"/>
  <rect x="730" y="390" width="140" height="460" rx="12" fill="#818cf8"/>
  <polyline points="220,640 390,600 560,640 730,520 900,460" fill="none" stroke="#2563eb" stroke-width="16" stroke-linecap="round" stroke-linejoin="round"/>

  <text x="190" y="360" font-family="Chakra Petch, Arial, sans-serif" font-size="66" font-weight="700" fill="#1f2937">Stock Data Search</text>
  <text x="190" y="930" font-family="Chakra Petch, Arial, sans-serif" font-size="40" fill="#374151">Market lookup and trend visualization</text>
</svg>
